<?xml version="1.0" encoding="utf-8"?>
<svg version="1.1" id="Layer_1" xmlns="http://www.w3.org/2000/svg" xmlns:xlink="http://www.w3.org/1999/xlink" x="0px" y="0px"
	 viewBox="0 0 5000 3309.746" enable-background="new 0 0 5000 3309.746" xml:space="preserve">
<path d="M4873.295,1275.826c-129.891,54.158-389.092,201.224-964.644,453.891c-28.645-16.937-73.932-46.537-104.88-34.57
	c-14.119,5.459-24.155,19.904-39.052,23.45c-14.897,3.547-34.639-3.806-60.566-9.893c-29.083-6.828-60.846-11.546-113.123-40.331
	c11.428-19.578-25.744-24.401-154.923-119.203c-170.916-125.432-242.849-219.379-312.907-341.988
	c-0.919,10.365-3.712,21.439-8.099,34.595c13.384-40.162,11.875-60.924-12.115-100.834c-27.62-45.98-85.08-117.38-113.4-178.59
	c-21.58-46.66-26.22-87.37-34.11-117.79c27.095-45.451,13.355-66.58,115.74-87.31c16.99-3.45,20-2.69,24.56-13.07
	c4.01-9.12,9.21-26.84,10.5-40c12.123-10.101,14.548-11.975,11.53-15.26c-3.06-3.32-11.96-8.07-12.24-10.26
	c-0.468-3.533,20.275-0.055,19.04-7.59c-0.31-1.88-2.41-3.5-4.55-6.19c-8.69-10.832,4.076-13.274,17.35-23.98
	c7.64-6.17,14.83-14.68,13.07-20.29c-1.77-5.6-12.49-8.28-21.27-27.25c-2.97-6.4-5.71-14.67-8.26-23.63
	c65.76-39.77,132.88-89.69,196.6-147.78c101.692-92.706,233.03-247.901,233.03-257.09c0-8.547-55.963,34.832-197.57,100.97
	c-91.37,42.67-218.55,94.92-323.76,80.23c-105.2-14.69-188.4-96.31-286.79-162.86c-98.39-66.54-211.63-117.84-289.67-147.39
	c-125.765-47.637-167.355-43.077-264.5-13.56c-101.998,31.001-109.572,34.229-118.54,53.3c-5.52,11.75-11.1,30.01-14.41,43.14
	c-3.3,13.14-4.34,21.16,18.22,12.16s68.72-35.03,109.12-52.98c98.428-43.743,149.107-30.303,250.82,79.03
	c65.01,69.89,156.97,186.28,203.01,247.34c46.04,61.05,46.24,66.85,37.71,77.02c-8.54,10.18-25.8,24.72-93.34,48.65
	c-67.55,23.93-185.36,57.23-268.61,74.82c-83.25,17.59-131.34,19.45-161.2,22.01c-29.87,2.55-40.35,5.77,9.76,14.76
	c50.11,8.99,160.81,23.77,278.35,34.33c103.09,9.26,211.45,15.28,305.75,10.65c-63.159,165.922-153.015,272.383-315.41,325.03
	c-126.34,40.94-342.433,62.547-459.68-0.83c-27.75-15.01-26.46-24.55-22.27-33.97c4.19-9.41,11.28-18.71,17.78-20.51
	s12.41,3.89,14.08,2.89c1.67-0.99-0.91-8.67-7.88-11.96c-14.203-6.674-46.783,5.896-60.45,37.05c-6.62,15.1-7.81,33.79-3.42,49.67
	c4.4,15.88,14.39,28.95,33.21,40.22c52.252,31.307,145.523,35.985,170.33,44.86c12.54,4.49-4.23,8.39-35.16,8.02
	c-30.93-0.38-76.04-5.02-104.09-11.55c-28.06-6.53-39.07-14.93-44.09-15.49c-5.01-0.57-4.25,5.1,4.83,17.06
	c75.99,99.982,264.989,48.539,382.59,31.36c35.95-5.24,19.61,1.9-11.33,22.94c-30.93,21.04-76.48,55.99-104.34,81.55
	c-50.584,46.426-31.665,47.137-102.11,99.47c-21.12,15.69-46.36,33.73-77.18,46.52c-67.148,27.853-168.597,29.751-194.44,20.61
	c-15.53-5.48-8.61-15.79-7.53-22.37c1.08-6.59-3.67-9.44-7.38-8.94c-3.72,0.5-6.41,4.35-9.26,11.29
	c-2.85,6.93-5.88,16.95-0.57,29.08c5.31,12.13,18.95,26.37,63.03,30.35c64.744,5.846,209.241-9.918,278.65-25.92
	c24.29-5.59,42.21-10.91,47.02-5.44c4.82,5.47-3.48,21.72-15.23,40.48c-34.798,55.558-59.448,76.02-98.07,107.84
	c-24.52,20.22-59.39,48.72-101.49,68.66c-62.742,29.71-164.091,49.714-227.48,24.49c-19.36-7.69-25.17-17.21-29.11-18.94
	c-3.94-1.74-6.01,4.31-2.87,12.33c3.13,8.02,11.48,18.01,34.05,31.25c22.58,13.24,59.38,29.7,99.33,38.95s83.05,11.28,103.07,13.13
	c56.202,5.168-63.312,9.086-143.31,1.54c-25.23-2.37-41.77-5.92-49.48-5.09c-27.811,2.994,95.436,46.719,186.06,45.42
	c60.01-0.85,114.25-20.08,164.39-41.67c50.14-21.59,98.02-46.5,143.72-84.93c45.71-38.43,90.16-90.85,117.94-113.94
	c27.78-23.09,38.9-16.84,34.43,2.97c-4.47,19.81-24.52,53.18-42.35,73.7c-17.83,20.52-33.45,28.18-28.36,30.7
	c5.1,2.51,30.9-0.11,60.28-26.71s62.3-77.16,89.73-115.86c52.115-73.528,106.929-130.812,170.81-212.56
	c1.33,53.19,3.5,97.51,7.91,138.26c9.084,83.842,27.046,144.061-22.34,222.94c-14.92,23.83-30.28,38.25-51.96,61.55
	c-21.68,23.3-49.68,55.47-72.22,87.74c-48.568,69.543-58.818,119.135-42.09,195.49c14.266,65.121,32.675,90.971,7.71,141.45
	c-34.797,70.392-103.835,106.856-174.81,143.58c-44.5,23.02-92.22,46.17-116.62,62.3c-24.4,16.13-25.47,25.22-20.51,25.85
	c4.96,0.62,15.94-7.23,33.98-14.69c18.04-7.46,43.14-14.52,48-8.78c4.86,5.75-10.52,24.29-18.31,37.33
	c-25.453,42.694,50.268-14.676,95.04-40.62c25.72-14.9,38.44-17.78,36.62-12.87c-2.632,7.125-50.886,42.997-64.542,54.702
	c-85.431,34.369-167.796,67.476-245.716,98.826c-54.153,12.57-131.226,36.001-204.525,64.898
	c19.471-11.152,39.24-26.08,64.101-49.75c31.357-29.856,117.364-119.622,120.577-163.005c0.878-11.859-6.014-13.67-55.606,24.63
	c-49.592,38.3-141.156,116.902-179.223,144.666c-63.213,46.105,18.637-43.705,44.82-136.854c9.196-32.717,6.168-55.25-19.762-18.381
	c-22.477,31.958-62.129,108.488-88.983,159.924c-29.754-2.14-56.628,19.618-59.81,50.216c-0.438-0.072-0.867-0.142-1.311-0.215
	l-0.001-0.002c-64.848-10.642-194.542-31.925-316.753-43.505c-211.028-19.998-414.341-11.544-564.092,12.79
	c-43.926,7.137-47.536,10.917-34.184,15.299c49.788,16.34,192.955,18.372,122.037,37.959
	c-46.463,12.833-186.611,33.105-287.11,55.757c-100.498,22.652-161.329,47.681-204.059,68c-42.73,20.319-67.364,35.93-58.165,39.735
	c9.199,3.805,52.229-4.194,106.302-14.228c54.073-10.036,119.18-22.108,88.225-8.357
	c-56.746,25.208-373.968,116.108-350.592,137.951c8.476,7.92,62.467,5.196,132.819,6.244c70.352,1.048,157.068,5.869,116.61,15.835
	c-40.457,9.966-208.091,25.077-301.862,29.029s-113.682-3.257-121.85,0.31c-8.167,3.566-4.592,17.913,30.722,37.056
	c35.315,19.143,102.347,43.074,185.05,54.817s180.282,11.296,168.532,18.064c-11.75,6.767-132.461,20.535-188.143,32.134
	c-55.681,11.598-45.372,20.917,3.171,32.725s135.272,26.092,246.067,26.235c110.796,0.144,245.627-13.855,246.722-7.501
	c1.095,6.354-131.551,33.061-246.395,45.895c-114.844,12.834-211.885,11.797-209.285,25.315
	c2.6,13.519,104.831,41.591,214.296,45.336c109.465,3.745,226.115-16.841,319.894-34.574
	c93.778-17.733,164.666-32.612,158.771-25.152c-5.895,7.459-88.571,37.254-146.096,57.385
	c-57.525,20.13-89.897,30.595-131.913,36.892c-88.029,13.194-173.019,7.159-84.091,29.073
	c34.994,8.623,91.856,20.922,172.623,11.305c80.767-9.618,185.428-41.151,276.588-77.859c91.16-36.708,168.81-78.589,263.44-134.982
	c94.63-56.393,206.234-127.295,283.792-187.219c59.023-45.603,142.263-120.663,174.108-188.462
	c34.059,24.447,81.928,4.337,88.256-37.147c160.073,28.361,193.556,65.88,218.906,79.954c11.348,6.3,14.202,3.035,12.699-3.56
	c-1.504-6.594-7.557-16.836-27.791-36.18c-20.233-19.344-55.017-48.428-77.762-65.967c-22.745-17.539-33.432-23.515-16.844-22.655
	c16.588,0.861,60.334,8.536,90.083,19.587c29.749,11.05,45.28,25.444,55.033,32.161c9.752,6.717,13.742,5.769,12.979-2.984
	c-0.763-8.753-6.281-25.304-14.807-41.249c-14.687-27.468-32.005-41.131-50.489-47.958c79.135-30.25,163.275-62.603,250.877-96.449
	c1.068-1.337,2.092-2.643,3.072-3.918c-17.224,22.425-40.606,44.763-62.171,87.571c-8.047,15.988-36.851,82.893-37.81,100.34
	c-0.39,7.28,2.43,10.98,14.03-0.96c11.6-11.94,31.96-39.51,63.95-70.35c95.24-91.817,251.68-167.065,299.33-180.09
	c35.68-9.75,34.79,6.42,29.32,32.83c-5.47,26.41-15.52,63.07,9.53,39.33c25.06-23.75,85.77-108.69,142.22-155.71
	c56.46-47.02,109.77-57.67,235.93-115.84c88.735-40.958,37.179-19.966,101.437-45.319c115.307-9.254,146.003-19.58,137.891-11.455
	c-6.936,6.945-43.014,27.39-111.458,78.908c-68.443,51.518-169.25,134.108-230.041,191.986
	c-56.048,53.363-78.076,85.715-96.82,107.245c-11.654-7.554-16.584,1.839-22.019,8.957c-23.073,30.221-72.081,18.575-138.004,70.874
	c-40.263,31.942-95.94,91.957-127.87,142.052c-8.221,12.898-8.253,15.205-7.203,19.175c1.05,3.969,3.179,9.596,5.342,11.997
	c2.163,2.401,4.357,1.571,14.551-6.984c27.007-22.663,51.201-46.419,76.464-53.757c9.289-2.698,17.538-3.094,22.736-2.334
	c10.481,1.531,9.306,7.532,10.151,30.418c2.331,63.14,9.26,126.865,29.316,186.257c14.438,42.757,37.221,89.115,59.992,115.276
	c22.77,26.16,45.527,32.118,56.063,32.87c10.537,0.751,8.852-3.701,5.795-9.331c-3.057-5.63-7.488-12.443-11.493-24.654
	c-9.196-28.037-12.834-67.607-16.552-88.012c-1.897-10.409-4.371-20.604-6.593-30.791c9.852-11.83,17.841-18.507,25.47-23.068
	c8.302-4.962,16.183-7.435,21.403-8.017s7.779,0.728,9.76,3.956c6.588,10.736,27.124,110.234,83.303,195.656
	c24.797,37.706,58.58,76.781,87.234,96.321c28.654,19.54,52.177,19.539,62.561,17.597c10.384-1.942,7.625-5.822,3.242-10.495
	c-12.296-13.107-20.079-20.353-38.671-62.361c-6.408-14.479-11.296-27.302-16.996-39.527c-20.9-44.816-41.29-61.947-34.871-156.933
	c2.245-33.226,15.231-159.6,31.393-188.898c8.761-15.883,21.987-16.439,16.669-23.622v0.001c-1.404-1.895-4.121-4.116-9.887-8.669
	c53.516-74.527,306.613-277.099,509.553-469.53c5.71-3.243,11.271-6.43,16.627-9.541c135.945-78.948,153.168-112.996,155.92-144.35
	c2.482-28.274-7.211-53.547-19.733-74.392c-7.044-25.813-23.794-47.275-44.151-64.96c23.797-9.516,47.308-18.928,70.479-28.217
	c22.163,12.534,56.654,29.604,81.908,32.91c14.493,1.897,19.715-2.591,27.129-5.916c11.572-5.19,33.794-8.543,42.778-25.112
	c3.152-5.813,2.955-11.61,9.291-22.598c9.109-15.799,24.586-33.165,23.438-50.231c21.738,2.505,26.095-3.062,34.997-8.349
	c11.159-6.627,26.283-10.07,36.2-23.756c1038.901-421.212,1068.277-469.596,1080.798-548.207
	C5003.51,1264.336,5009.388,1219.082,4873.295,1275.826z M2201.542,2498.88c24.141-9.887,52.604-22.937,73.777-28.229
	C2254.071,2475.965,2225.242,2489.179,2201.542,2498.88z M2167.188,2506.29c-2.325-6.777,15.801-17.385,108.539-91.898
	C2183.582,2488.434,2164.872,2499.512,2167.188,2506.29z M2900.757,2692.401c-13.188-4.357-15.579,5.979-19.033,14.242
	c-8.982,21.485-27.184,26.98-62.154,51.57c-38.306,26.936-60.953,58.771-86.824,103.508
	c10.854-45.592,41.688-121.115,59.291-160.317c24.338-54.202,32.085-58.238,48.405-65.669c4.015-1.828,5.63-3.673,4.234-7.158
	l0,0.001c-0.878-2.189-2.944-5.026-7.369-10.891c34.739-28.786,107.662-66.039,154.176-89.972
	C2929.356,2622.211,2916.103,2661.477,2900.757,2692.401z M3445.791,1682.261c-5.192-5.267-11.952-11.585-17.677-16.922
	C3433.888,1670.721,3440.668,1677.061,3445.791,1682.261z M3292.382,1528.649c-26.688-29.731-55.199-63.335-82.469-98.59
	C3237.183,1465.314,3265.695,1498.917,3292.382,1528.649z M3055.836,2192.243c4.715-2.317,9.474-4.663,14.271-7.034
	C3065.311,2187.583,3060.552,2189.928,3055.836,2192.243z M2904.765,1738.482c-15.93-25.42-22.18-64.32-21.86-91.48
	c0.727-61.724,46.313-69.532,112.54-161.98c20.98,28.89,42.11,48.16,88.51,112.62c49.17,68.32,126.72,187.39,180.51,268.77
	C2957.93,1782.668,2925.619,1771.759,2904.765,1738.482z M3096.601,2172.025c106.756-53.438,231.1-119.082,392.538-204.248
	C3324.841,2054.495,3199.986,2120.279,3096.601,2172.025z M3476.466,1923.855c13.302,3.588,26.624,7.18,39.957,10.775
	c0,0,0,0.001,0.001,0.001C3503.087,1931.038,3489.766,1927.445,3476.466,1923.855z M3522.437,1947.577
	c0.14-0.379,0.226-0.766,0.277-1.158C3522.665,1946.81,3522.579,1947.197,3522.437,1947.577z M3462.641,1920.124
	c-11.176-3.492,32.275,8.73-70.506-19.032c4.217-29.44,8.942-55.984,17.81-83.42c16.947-52.459,42.532-92.586,47.303-106.804
	c-4.777,14.264-30.307,54.198-47.301,106.804c14.716,8.229,29.462,16.423,43.708,24.289c5.687,24.443,4.81,56.079,17.96,44.932
	c4.594-3.895,10.746-12.553,17.726-25.346c16.186,8.824,33.313,18.076,49.554,26.618
	C3513.758,1898.732,3488.324,1909.39,3462.641,1920.124z M3603.094,1805.391c-17.619-7.503-39.799-17.79-72.09-40.453
	c0.041-0.096,0.082-0.192,0.123-0.288c36.746,15.214,87.208,35.856,123.813,49.739
	C3639.087,1820.87,3620.793,1812.928,3603.094,1805.391z"/>
</svg>
